# xmcd
#
# Track frame offsets: 
#        150
#        53501
#        90946
#        117535
#        193662
#        205587
#        249311
#
# Disc length: 3868 seconds
#
# Revision: 0
# Processed by: cddbd v1.5.2PL0 Copyright (c) Steve Scherf et al.
# Submitted via: ExactAudioCopy v0.95b4
#
DISCID=510f1a07
DTITLE=Yes  - Circus Of Heaven - Disc 2
DYEAR=1900
DGENRE=
TTITLE0=Starship Trooper
TTITLE1=On The Silent Wings Of Freedom
TTITLE2=Rick Wakeman Solo
TTITLE3=Awaken
TTITLE4=Tour Song
TTITLE5=I've Seen All Good People
TTITLE6=Roundabout - Ending
EXTD=
EXTT0=
EXTT1=
EXTT2=
EXTT3=
EXTT4=
EXTT5=
EXTT6=
PLAYORDER=
